<?xml version="1.0" standalone="no"?>
<!DOCTYPE svg PUBLIC "-//W3C//DTD SVG 20010904//EN"
 "http://www.w3.org/TR/2001/REC-SVG-20010904/DTD/svg10.dtd">
<svg version="1.0" xmlns="http://www.w3.org/2000/svg"
 width="573.000000pt" height="574.000000pt" viewBox="0 0 573.000000 574.000000"
 preserveAspectRatio="xMidYMid meet">

<g transform="translate(0.000000,574.000000) scale(0.100000,-0.100000)"
fill="#000000" stroke="none">
<path d="M1165 4559 c-152 -21 -279 -115 -345 -253 -29 -62 -50 -152 -50 -213
l0 -33 89 0 89 0 7 53 c21 155 129 257 275 257 147 0 270 -121 270 -266 l0
-44 96 0 97 0 -6 68 c-8 93 -30 156 -78 231 -94 143 -274 224 -444 200z"/>
<path d="M535 3925 l-25 -24 0 -808 c1 -854 -1 -826 47 -851 28 -16 1075 -17
1154 -2 175 33 321 148 381 300 30 75 32 241 4 315 -40 104 -112 186 -221 250
-16 10 -13 15 31 47 157 116 208 344 118 534 -58 123 -197 229 -333 254 -29 6
-168 10 -307 10 -216 0 -255 -2 -268 -16 -13 -13 -16 -43 -16 -169 0 -142 2
-155 19 -165 12 -6 109 -10 247 -10 213 0 229 -1 261 -21 96 -60 90 -209 -12
-266 -38 -21 -51 -23 -250 -23 -149 0 -217 -4 -235 -13 -25 -12 -25 -14 -28
-166 -2 -133 0 -156 14 -172 16 -18 36 -19 259 -19 235 0 243 -1 275 -22 45
-31 69 -66 77 -111 8 -53 -20 -121 -65 -155 l-35 -27 -310 -3 c-226 -2 -312 0
-323 9 -12 10 -14 112 -14 654 0 635 0 643 -21 669 l-20 26 -190 0 c-188 0
-190 0 -214 -25z"/>
<path d="M2340 3937 c-51 -26 -50 -5 -47 -860 l2 -799 28 -24 28 -24 559 0
559 0 28 24 c28 24 28 26 31 155 4 128 3 131 -22 156 l-25 25 -401 0 -400 0 0
160 0 160 298 1 c340 1 348 2 373 25 17 15 19 33 19 159 0 125 -2 144 -18 158
-17 15 -55 17 -345 17 l-327 0 0 160 0 160 394 0 c489 0 446 -17 446 176 0
130 -1 136 -25 159 l-24 25 -553 0 c-423 0 -559 -3 -578 -13z"/>
<path d="M3793 3934 c-17 -9 -36 -28 -42 -42 -8 -19 -11 -258 -9 -820 l3 -794
28 -24 c27 -23 35 -24 163 -24 l136 0 29 29 29 29 0 461 c0 254 3 461 8 461 9
-1 92 -112 421 -565 139 -192 267 -363 283 -380 l28 -30 150 0 c142 0 151 1
172 23 l23 23 0 810 0 811 -28 24 c-27 23 -35 24 -163 24 l-136 0 -29 -29 -29
-29 0 -476 c0 -376 -3 -474 -12 -470 -7 3 -84 103 -170 222 -86 119 -239 330
-338 467 -100 138 -197 265 -215 283 l-35 32 -117 0 c-86 0 -127 -5 -150 -16z"/>
<path d="M4789 1942 c-112 -37 -196 -118 -241 -230 -17 -44 -22 -79 -22 -152
-1 -87 2 -101 31 -162 40 -86 101 -151 172 -185 46 -22 74 -28 151 -31 94 -4
109 -1 211 42 11 5 18 1 22 -13 7 -27 48 -36 84 -19 l28 13 3 184 c2 127 -1
188 -9 197 -9 11 -44 14 -149 14 -120 0 -139 -2 -153 -18 -21 -23 -22 -66 -1
-86 11 -12 36 -16 95 -16 l79 0 0 -45 c0 -52 -15 -73 -75 -103 -98 -49 -205
-33 -280 43 -97 96 -98 273 -2 374 93 98 239 106 348 20 28 -22 46 -29 62 -25
38 9 60 31 60 62 0 36 -54 86 -132 122 -73 34 -202 40 -282 14z"/>
<path d="M512 1938 c-9 -9 -12 -106 -12 -375 l0 -363 24 -6 c13 -3 113 -4 223
-2 l200 3 49 30 c37 23 56 44 77 84 45 90 32 170 -40 239 l-44 43 30 35 c17
19 33 47 37 62 3 15 7 33 10 40 2 7 -1 36 -7 65 -14 64 -73 129 -134 146 -56
15 -397 15 -413 -1z m387 -142 c15 -14 21 -31 21 -62 0 -35 -5 -47 -31 -68
-29 -25 -37 -26 -140 -26 l-109 0 0 91 0 91 119 -4 c100 -2 122 -6 140 -22z
m33 -325 c25 -28 29 -39 24 -70 -9 -62 -39 -78 -160 -86 -58 -4 -117 -4 -131
-1 -25 6 -25 8 -25 102 l0 96 131 -4 131 -3 30 -34z"/>
<path d="M1456 1943 c-10 -10 -15 -23 -141 -333 -57 -140 -118 -286 -135 -325
l-31 -70 21 -17 c23 -18 70 -22 104 -9 11 4 33 39 52 82 l33 74 157 0 157 0
31 -74 c19 -46 39 -77 51 -82 36 -14 81 -10 99 10 19 21 26 -1 -149 441 -135
342 -116 310 -184 310 -32 0 -61 -3 -65 -7z m116 -336 c25 -67 44 -125 41
-129 -6 -10 -190 -10 -196 0 -6 10 95 263 102 256 3 -3 27 -60 53 -127z"/>
<path d="M1981 1936 c-8 -9 -11 -117 -9 -377 l3 -364 36 -9 c26 -6 44 -5 65 5
l29 14 5 233 5 234 21 -24 c12 -13 83 -106 158 -208 196 -266 190 -260 235
-260 72 0 71 -8 71 391 0 263 -3 358 -12 367 -17 17 -103 15 -117 -2 -9 -11
-12 -76 -10 -233 1 -120 -2 -220 -7 -223 -4 -3 -89 102 -186 233 l-179 237
-48 0 c-29 0 -53 -6 -60 -14z"/>
<path d="M2767 1943 c-3 -5 -8 -169 -10 -365 -4 -268 -2 -361 7 -373 9 -12 25
-15 66 -13 l55 3 5 107 5 108 40 39 40 40 123 -150 124 -150 71 3 c56 2 72 6
75 19 1 9 -65 98 -148 198 -82 101 -150 185 -150 186 0 2 45 52 101 112 172
184 193 211 179 228 -9 10 -32 15 -75 15 l-63 0 -138 -152 c-76 -84 -148 -161
-161 -171 l-23 -18 -2 168 -3 168 -57 3 c-31 2 -59 -1 -61 -5z"/>
<path d="M3482 1938 c-9 -9 -12 -106 -12 -375 0 -348 1 -363 19 -373 11 -5 34
-10 51 -10 17 0 40 5 51 10 18 10 19 25 19 373 0 269 -3 366 -12 375 -7 7 -33
12 -58 12 -25 0 -51 -5 -58 -12z"/>
<path d="M3771 1936 c-9 -11 -12 -107 -10 -367 3 -398 1 -389 77 -389 70 0 71
6 74 266 l3 229 175 -239 c96 -131 185 -243 198 -249 15 -7 35 -7 60 -1 34 8
37 13 42 49 3 22 3 191 0 375 l-5 335 -60 0 -60 0 -3 -237 c-1 -141 -6 -238
-12 -238 -9 0 -90 107 -284 373 l-79 107 -52 0 c-33 0 -57 -5 -64 -14z"/>
</g>
</svg>
